<svg width="428" height="429" viewBox="0 0 428 429" fill="none" xmlns="http://www.w3.org/2000/svg">
<circle cx="215" cy="226" r="125" fill="url(#paint0_linear_2_15)"/>
<path d="M143.867 28.5379L142.115 28.0617L141.12 29.5807C103.937 86.3543 92.9601 138.854 108.94 186.834C114.619 203.885 124.111 219.263 137.374 232.959L137.388 232.974L137.403 232.989C150.863 246.429 163.939 256.907 176.635 264.371L176.654 264.383L176.674 264.394C189.329 271.531 201.555 280.103 213.35 290.117L213.38 290.142L213.41 290.166C225.331 299.665 232.668 309.129 235.791 318.505C238.941 327.963 238.839 337.628 235.433 347.588C233.967 351.873 231.604 356.589 228.297 361.743C223.964 368.496 218.053 375.935 210.53 384.063L208.586 386.164L210.928 387.808L245.824 412.303L247.394 413.405L248.865 412.174C267.79 396.336 282.867 380.458 294.049 364.53C317.46 331.185 323.783 297.61 312.599 264.029C308.515 251.765 299.639 240.34 286.271 229.706C273.484 219.162 260.642 208.451 247.745 197.573C235.083 186.895 226.902 175.645 222.976 163.856C213.733 136.104 224.6 102.614 257.222 62.9999L259.682 60.0129L255.948 58.9981L143.867 28.5379Z" fill="white" stroke="url(#paint1_linear_2_15)" stroke-width="5"/>
<defs>
<linearGradient id="paint0_linear_2_15" x1="90" y1="101" x2="340" y2="351" gradientUnits="userSpaceOnUse">
<stop stop-color="#FF008A"/>
<stop offset="1" stop-color="#3C2181"/>
</linearGradient>
<linearGradient id="paint1_linear_2_15" x1="151.485" y1="28.1949" x2="275.59" y2="400.821" gradientUnits="userSpaceOnUse">
<stop stop-color="#3C2181"/>
<stop offset="1" stop-color="#FF008A"/>
</linearGradient>
</defs>
</svg>
