<svg width="428" height="429" viewBox="0 0 428 429" fill="none" xmlns="http://www.w3.org/2000/svg">
<circle cx="215" cy="226" r="125" fill="#FF008A"/>
<path d="M111.312 186.044C95.653 139.028 106.286 87.3303 143.211 30.9504L255.293 61.4106C222.505 101.225 210.942 135.636 220.604 164.646C224.713 176.984 233.223 188.597 246.133 199.485C259.043 210.373 271.898 221.094 284.697 231.648C297.83 242.092 306.34 253.149 310.227 264.819C321.118 297.518 315.043 330.276 292.003 363.094C280.976 378.801 266.061 394.522 247.26 410.257L212.365 385.762C219.954 377.561 225.966 370.005 230.401 363.094C233.785 357.819 236.251 352.92 237.798 348.397C241.373 337.945 241.495 327.718 238.163 317.715C234.831 307.711 227.1 297.877 214.968 288.211C203.059 278.101 190.704 269.436 177.902 262.216C165.434 254.885 152.523 244.553 139.17 231.22C126.151 217.775 116.865 202.716 111.312 186.044Z" fill="black"/>
</svg>
