<svg width="318" height="318" viewBox="0 0 318 318" fill="none" xmlns="http://www.w3.org/2000/svg">
<circle cx="159" cy="159" r="159" fill="black"/>
<mask id="mask0_5_30" style="mask-type:alpha" maskUnits="userSpaceOnUse" x="0" y="0" width="318" height="318">
<circle cx="159" cy="159" r="159" fill="#D2D2D2"/>
</mask>
<g mask="url(#mask0_5_30)">
<path d="M54.8118 122.122C41.4502 74.4027 54.5767 23.281 94.1914 -31.2427L204.664 4.61455C169.986 42.7924 156.768 76.6034 165.013 106.047C168.519 118.57 176.456 130.581 188.823 142.082C201.19 153.583 213.51 164.915 225.782 176.078C238.394 187.145 246.358 198.602 249.675 210.447C258.968 243.635 251.312 276.06 226.709 307.722C214.933 322.877 199.274 337.856 179.732 352.661L146.065 326.503C154.043 318.68 160.414 311.425 165.179 304.736C168.815 299.632 171.515 294.859 173.28 290.415C177.357 280.15 177.974 269.94 175.131 259.787C172.288 249.634 165.042 239.436 153.394 229.194C141.989 218.518 130.068 209.265 117.631 201.433C105.533 193.506 93.1382 182.56 80.4469 168.595C68.095 154.535 59.5499 139.044 54.8118 122.122Z" fill="#FF008A"/>
</g>
</svg>
